<svg width="26" height="26" viewBox="0 0 26 26" fill="none" xmlns="http://www.w3.org/2000/svg">
<path d="M25.0209 3.80768C25.802 3.02663 25.802 1.7603 25.0209 0.979249C24.2399 0.1982 22.9735 0.1982 22.1925 0.979249L25.0209 3.80768ZM0.979272 22.1925C0.198224 22.9735 0.198224 24.2398 0.979272 25.0209C1.76032 25.8019 3.02665 25.8019 3.8077 25.0209L0.979272 22.1925ZM22.1925 25.0208C22.9735 25.8018 24.2399 25.8018 25.0209 25.0208C25.802 24.2397 25.802 22.9734 25.0209 22.1923L22.1925 25.0208ZM3.8077 0.979118C3.02665 0.198069 1.76032 0.198069 0.979272 0.979118C0.198224 1.76017 0.198224 3.0265 0.979272 3.80755L3.8077 0.979118ZM22.1925 0.979249L0.979272 22.1925L3.8077 25.0209L25.0209 3.80768L22.1925 0.979249ZM25.0209 22.1923L3.8077 0.979118L0.979272 3.80755L22.1925 25.0208L25.0209 22.1923Z" fill="#28303F"/>
</svg>
