<svg width="56" height="56" viewBox="0 0 56 56" fill="none" xmlns="http://www.w3.org/2000/svg">
<circle cx="25.5" cy="24.5" r="14.5" fill="url(#paint0_linear_8_33)"/>
<path d="M45.5 40.5C46.592 41.2945 47.6511 43.1977 47 44.5C46.5 45.5 46 46 45 46.5C44.078 46.961 42.3683 46.5 41 45L34.5 38.5C37.0305 37.03 37.03 37.0305 38.5 34.5L45.5 40.5Z" fill="#F3F8FC"/>
<path d="M42 25.0285C42 28.098 40.9385 31.022 39.5 33.5L35 30C36 28.5 36 27 36 25.0285C36 18 31.5 14 25 14C17 14 14 20.482 14 25.0285C14 31 19 35.5 25.0285 35.5C26.0995 35.5 28.0274 35.5 29.5 35L33.4565 39.5675C30.9785 41.006 28.098 41.832 25.0285 41.832C15.7465 41.832 8 34.307 8 25.0285C8 15.75 15.718 8.00002 25 8.00002C34.282 8.00002 42 15.7465 42 25.0285Z" fill="#F3F8FC"/>
<path d="M35 30L39.5675 33.4565C38.0975 35.987 35.987 38.0975 33.4565 39.5675L29.5 35C31.6035 34.167 34.167 32.1035 35 30Z" fill="#F3F8FC"/>
<defs>
<linearGradient id="paint0_linear_8_33" x1="9.5" y1="23" x2="38.5" y2="29" gradientUnits="userSpaceOnUse">
<stop stop-color="#EFEFEF" stop-opacity="0.61"/>
<stop offset="1" stop-color="#D9D9D9" stop-opacity="0.04"/>
</linearGradient>
</defs>
</svg>
