<svg width="40" height="28" viewBox="0 0 40 28" fill="none" xmlns="http://www.w3.org/2000/svg">
<path d="M3.74939 15.9383C2.88687 15.2482 1.62828 15.3881 0.938262 16.2506C0.248243 17.1131 0.388086 18.3717 1.25061 19.0617L3.74939 15.9383ZM11.3161 24.5528L10.0667 26.1146H10.0667L11.3161 24.5528ZM18.156 23.9933L16.6694 22.6554L18.156 23.9933ZM38.9866 3.83793C39.7255 3.01691 39.659 1.75233 38.8379 1.01341C38.0169 0.274494 36.7523 0.34105 36.0134 1.16207L38.9866 3.83793ZM1.25061 19.0617L10.0667 26.1146L12.5654 22.9911L3.74939 15.9383L1.25061 19.0617ZM19.6426 25.3313L38.9866 3.83793L36.0134 1.16207L16.6694 22.6554L19.6426 25.3313ZM10.0667 26.1146C12.9623 28.4311 17.162 28.0875 19.6426 25.3313L16.6694 22.6554C15.6063 23.8367 13.8064 23.9839 12.5654 22.9911L10.0667 26.1146Z" fill="#273B50"/>
</svg>
